# xmcd
#
# Track frame offsets:
#	150
#	19208
#	44163
#
# Disc length: 760 seconds
# Revision: 0
# Processed by: cddbd v1.5.2PL0 Copyright (c) Steve Scherf et al.
# Submitted via: dBpowerAMP V12.0
#
DISCID=2402f603
DTITLE=Black Box feat. Loleatta Holloway - Ride On Time
DYEAR=1989
DGENRE=Italo House
TTITLE0=Ride On Time [Massive Radio Edit]
TTITLE1=Ride On Time [Epsom Mix]
TTITLE2=Ride On Time [Ascot Mix]
EXTD=
EXTT0=
EXTT1=
EXTT2=
PLAYORDER=
